<?xml version="1.0" encoding="utf-8"?>
<!-- Generator: Adobe Illustrator 19.2.1, SVG Export Plug-In . SVG Version: 6.00 Build 0)  -->
<svg version="1.1" id="layer" xmlns="http://www.w3.org/2000/svg" xmlns:xlink="http://www.w3.org/1999/xlink" x="0px" y="0px"
	 viewBox="0 0 652 652" style="enable-background:new 0 0 652 652;" xml:space="preserve">
<style type="text/css">
	.st0{fill:#00B398;}
	.st1{fill:#009A44;}
	.st2{fill:#A8AD00;}
	.st3{fill:#007A3E;}
	.st4{fill:#B29200;}
	.st5{fill:#FFB81C;}
	.st6{fill:#007041;}
	.st7{fill:#A6631B;}
	.st8{fill:#EE9806;}
	.st9{fill:#EE7203;}
	.st10{fill:#E88200;}
	.st11{fill:#623B2A;}
	.st12{fill:#E5481D;}
	.st13{fill:#99552B;}
	.st14{fill:#E9500E;}
	.st15{fill:#4DCBEB;}
	.st16{fill:#00843D;}
	.st17{fill:#00A499;}
	.st18{fill:#00B5E2;}
	.st19{fill:#275D38;}
	.st20{fill:#4E3629;}
	.st21{fill:#22372B;}
	.st22{fill:#A0252B;}
	.st23{fill:#C8102E;}
	.st24{fill:#E32213;}
</style>
<path d="M314.2,304.5c-4,2.3-11.2,3.5-16.5,3.5c-8.5,0-15.1-2-19.5-6.1c-4.6-4.4-7-11-7-19.2c0-8.1,2.1-14.6,6.4-19.4
	c4.3-4.6,11.3-7.3,20.8-7.3c4.7,0,11.5,0.9,15.4,3v12.3h-2.5c-1.5-6.4-5-12.3-13.5-12.3c-13.2,0-15.5,15-15.5,22.6
	c0,8.4,2.2,23.3,15.9,23.3c8.6,0,11.9-6,14.3-13.8h2.5L314.2,304.5 M317.5,289.3c0,11.6,5.5,18.5,18.1,18.5
	c12.6,0,18.2-6.9,18.2-18.5c0-11.6-5.5-18.5-18.2-18.5C323,270.8,317.5,277.7,317.5,289.3 M335.5,304.8c-5.5,0-8-5.8-8-15.5
	c0-9.7,2.4-15.5,8-15.5c5.6,0,8.1,5.8,8.1,15.5C343.6,299,341.2,304.8,335.5,304.8z M394.8,306.9v-2.5l-1.8-0.1
	c-2-0.2-2.6-0.7-2.6-3.3v-16.5c0-1.4,0.1-2.7,0.4-3.6c1-3.3,3.7-5.1,6.8-5.1c3.8,0,6.3,2.4,6.3,7.6v17.6c0,2.7-0.6,3.2-2.5,3.3
	l-1.9,0.1v2.5h18.8v-2.5c-4.5-0.2-5-0.5-5-3.7V282c0-7-3.7-11.2-11.1-11.2c-5.3,0-9.7,3.5-12.6,5.5c-1.7-2.9-4.5-5.5-9.8-5.5
	c-5,0-8.7,3-12.2,5.2l-1-5.2l-13,2v2.3l2.7,0.4c1.4,0.2,1.9,0.7,1.9,3.5v21.8c0,3.2-0.4,3.5-4.9,3.7v2.5H372v-2.5l-1.8-0.1
	c-2-0.2-2.6-0.6-2.6-3.3v-16.5c0-1.4,0.1-2.5,0.4-3.5c1-3.2,3.8-5.2,7.1-5.2c4.5,0,5.8,3.4,5.8,7.6v17.6c0,2.7-0.6,3.2-2.6,3.3
	l-1.8,0.1v2.5H394.8 M416,321v2.5h20.5V321c-5.6-0.2-6.1-0.5-6.1-3.7v-10.7c1.4,0.6,4.4,1.2,6.9,1.2c4.8,0,9.4-0.9,12.9-3.8
	c3.5-2.9,5.6-7.9,5.6-15.6c0-9.6-4.4-17.6-13.4-17.6c-5.1,0-8.8,2.7-12,5.1l-1.1-5.1l-12.8,2v2.3l2.6,0.4c1.4,0.1,1.9,0.7,1.9,3.5
	v38.3C420.9,320.5,420.4,320.8,416,321 M430.3,284.3c0-1.6,0.2-2.9,0.6-4c1.2-2.9,3.5-4.5,6.8-4.5c3.2,0,7.9,2,7.9,13.8
	c0,9.6-2.5,15.3-8.5,15.3c-3.4,0-5.7-1.7-6.5-4.6c-0.3-1.1-0.4-2.8-0.4-4.3V284.3z M529.5,300.7c0,3.2,0.5,3.5,5,3.7v2.5h-18.8v-2.5
	l1.9-0.1c1.9-0.2,2.5-0.6,2.5-3.3v-17.8c0-5.1-2.3-7.4-6.4-7.4c-3.3,0-5.7,1.9-6.8,4.1c-0.6,1.1-0.7,2.4-0.7,4.2v16.9
	c0,2.7,0.6,3.2,2.6,3.3l1.8,0.1v2.5c0,0-1.6,0-1.7,0c-2.8,0-7.7,0-10.4,0c-5.7,0.1-9.4,1.7-15.1,0.5c-3.1-0.6-4.3-1.5-5.3-3.9
	c-2.5,1.7-5.9,4.2-10.3,4.2c-7.1,0-10.8-4.9-10.8-10.4c0-4,1.8-7.1,7.6-8.9c4.7-1.5,10-3,13.4-5v-3.8c0-4.7-2.5-6-4.8-6
	c-2.4,0-4.9,1.3-6.8,7.1c-0.5,1.6-1.3,2.6-2.8,2.6c-1.6,0-5.5-1.2-5.5-4.1c0-4.5,6.4-8.7,16.1-8.7c12,0,13,5.8,13,10.2v16.6
	c0,5.3,1.4,5.9,2.5,6.3c0.8,0.4,2,0.5,3,0.5c3.8-0.2,4.2-0.6,4.2-3.7v-21.8c0-2.7-0.5-3.2-1.9-3.5l-2.7-0.4v-2.3l13-2l1,5.2
	c4.6-2.9,8-5.2,12.5-5.2c7.2,0,10.8,4.3,10.8,11.2V300.7 M477.8,286.7c-1.7,0.9-4.4,1.8-7.1,3.1c-2.9,1.4-4.2,3-4.2,6.4
	c0,4,2.4,6.6,5.8,6.6c2.2,0,5.4-1.2,5.5-5.8V286.7z M570.8,274.1v-2.5h-14.3v2.5l3.2,0.4c1.1,0.1,1.5,0.9,1.1,2.3
	c-1.8,5.9-4.5,14.1-7.1,21.4h-0.1c-2.7-7.2-5.4-14.3-7.8-21.4c-0.4-1.4-0.4-2.2,0.9-2.4l2.8-0.3v-2.5h-18.8v2.5l2.4,0.4
	c1.2,0.2,1.9,1.1,2.8,3.1c4,9.5,8.9,21.8,12,30c0.3,0.7,0.4,1.5,0.5,2.3c0.1,1.3-0.1,2.7-0.6,4.2c-0.7,1.9-1.6,3.4-3,3.4
	c-0.8,0-1.6-0.4-2.6-1.2c-1.2-1.1-1.8-1.4-2.9-1.4c-1.9,0-4.1,2.7-4.1,5.1c0,2.5,2.4,4.3,5.5,4.3c4.2,0,7.7-2.1,11.5-12.5
	c4.3-11.8,9.4-24.9,13-33.3c1.2-2.9,1.9-4,4-4.2L570.8,274.1 M578.8,298.9c0,5.3,3,9,9.8,9c5.9,0,9.4-2.6,11.7-6.2
	c2.3-3.6,3.1-7.5,3.1-9.8c0-7.3-5.1-9.2-9.8-9.2c-6.2,0-9.7,3-11.9,6.5C579.6,292.7,578.8,296.7,578.8,298.9 M593.8,284.7
	c2.5,0,3.2,2,3.2,4.4c0,3.6-2.7,16.7-8.5,16.7c-2.1,0-3.4-1.5-3.4-4.2c0-3.2,0.9-7.8,2.7-11.4C589.3,287,591.3,284.7,593.8,284.7z
	 M604.7,283.2l-0.6,2.2h4.4l-6.1,30.3c-0.2,1-0.6,1.4-1,1.4c-0.6,0-1.2-0.6-2.5-2.7c-0.4-0.6-0.8-1.4-1.7-1.4
	c-1.4,0-2.7,1.3-2.7,2.8c0,1.9,2.1,3.3,5.4,3.3c5.6-0.1,8.1-4.3,10.1-13.3l4.7-20.5h6.1l0.5-2.2h-6.3l1.6-6.6
	c0.6-2.6,1.3-3.7,2.3-3.7c0.9,0,1.6,0.9,2.9,3.5c0.4,0.7,0.8,1.3,1.8,1.3c1.3,0,3-1.1,3-2.7c0-2.2-2.7-4.1-6.5-4.1
	c-3.4,0-5.8,1.3-7.5,3.4c-1.8,2.1-2.8,4.9-3.5,7.6l-0.4,1.5H604.7 M188.6,389.2v3.8h35.7c10.7,0,18-2,22.5-5.5
	c4.6-3.6,6.7-8.9,6.7-15.4c0-12.4-9.1-18.3-19.4-19.8v-0.2c10.5-2.2,16.2-8.1,16.2-16.9c0-6.5-2.5-10.9-7.2-13.9
	c-4.6-2.9-11.5-4.1-20.1-4h-34.4v3.8c8.4,0.4,9.1,0.8,9.1,6.6v54.9C197.7,388.5,197.1,388.8,188.6,389.2 M212.8,350.5v-24
	c0-4.1,1.5-4.5,7.2-4.6c9.3,0,15,4.9,14.9,14.1c-0.1,9.1-5.2,14.4-16.1,14.4H212.8z M212.8,355.1h6.3c11.9,0,17.8,7.4,17.8,17.5
	c-0.1,12.4-7.2,15.9-15.3,15.9c-6.7,0-8.9-1.6-8.9-7.5V355.1z M276.2,383.6v-44.8l-0.8-0.6l-20.4,3.1v3.5l3.9,0.6
	c2.1,0.3,2.8,1.1,2.8,5.3v33c0,4.9-0.8,5.4-7.5,5.7v3.8h29.4v-3.8C277,388.9,276.2,388.5,276.2,383.6 M268.7,331.6
	c5.3,0,8.8-3.8,8.9-8.5c0-4.7-3.4-8.5-8.9-8.5c-5.4,0-8.8,3.8-8.8,8.5C259.9,327.7,263.3,331.6,268.7,331.6z M282.8,366.3
	c0,17.6,8.4,28.1,27.5,28.1c19.2,0,27.6-10.5,27.6-28.1c0-17.6-8.4-28.1-27.6-28.1C291.2,338.1,282.8,348.7,282.8,366.3
	 M310.3,389.8c-8.4,0-12.1-8.8-12.1-23.5c0-14.8,3.7-23.5,12.1-23.5c8.5,0,12.3,8.7,12.3,23.5C322.5,381,318.8,389.8,310.3,389.8z
	 M358.1,383.6v-71l-0.8-0.7l-20.5,2.8v3.5l3.9,0.7c2.2,0.3,3,1.1,3,5.4v59.3c0,4.9-0.8,5.4-7.5,5.7v3.8h29.4v-3.8
	C358.8,388.9,358.1,388.5,358.1,383.6 M364.3,366.3c0,17.6,8.4,28.1,27.5,28.1c19.2,0,27.6-10.5,27.6-28.1
	c0-17.6-8.4-28.1-27.6-28.1C372.7,338.1,364.3,348.7,364.3,366.3 M391.8,389.8c-8.4,0-12.1-8.8-12.1-23.5c0-14.8,3.7-23.5,12.1-23.5
	c8.5,0,12.3,8.7,12.3,23.5C404,381,400.3,389.8,391.8,389.8z M453.8,382.4h-10.5c-5.4,0-7.1-1.9-7.1-3.9c0-2.7,3.3-4.1,4.8-4.5
	c2.1,0.2,3.9,0.2,5.1,0.2c12,0,23.6-4.7,23.6-17.7c0-3.8-1.2-7.3-2.8-9.2l7.8-1.3l2.2-7.8l-1.1-1.1l-13.8,4.6
	c-3.4-2.1-9.5-3.5-15.1-3.5c-18.6,0-24.5,10.2-24.5,18.5c0,9.5,6.8,14.8,12.8,15.9v0.2c-6.7,2.1-11.1,5.7-11.1,9.9
	c0,4.5,4.9,8.9,9.9,9.6v0.2c-4.6,1.2-12.6,3.5-12.6,11.2c0,5.3,3,9.5,7.2,12c4.5,2.6,10.9,3.8,17.9,3.8c6.8,0,13.7-1.2,19.3-4.5
	c5.5-3.2,9.4-8.5,9.4-15.7C475.3,386.5,465.4,382.4,453.8,382.4 M447.8,394.1c9.2,0,15.6,2.1,15.6,9.2c0,8.2-7,11.7-14.1,11.7
	c-8.1,0-14.8-4.4-14.8-12.3c0-3.2,1.2-5.5,3-6.8C439.4,394.6,442.8,394.1,447.8,394.1z M446.7,369.5c-5.3,0-9.3-4.9-9.3-13.1
	c0-9.9,4.6-13.7,9.4-13.7c4.7,0,9.2,3.9,9.2,13.7C456,364.6,452.2,369.5,446.7,369.5z M499.4,383.6v-44.8l-0.8-0.6l-20.4,3.1
	l-1.3,4.7l5.3,0.6c2.1,0.3,2.8,1.1,2.8,5.2v31.9c0,4.9-0.8,5.4-7.6,5.7v3.8h29.4v-3.8C500.1,388.9,499.4,388.5,499.4,383.6
	 M491.8,331.6c5.3,0,8.8-3.8,8.9-8.5c0-4.7-3.4-8.5-8.9-8.5c-5.4,0-8.8,3.8-8.8,8.5C483,327.7,486.4,331.6,491.8,331.6z
	 M541.9,355.9h3.7v-14c-4.2-2.6-10.2-3.7-15.6-3.7c-12.8,0-21,6-21,16.8c0,8.6,7.3,13.3,16.6,16.5c5,1.8,10.8,4.8,10.8,10.7
	c0,4.7-3.3,7.5-8.4,7.5c-7.9,0-13.3-7.1-16-16.3h-3.7l1.2,15.8c3.9,3.6,11.8,5.1,18,5.1c13.3,0,21.7-6.6,21.7-17.2
	c0-9.5-5.9-14-16.4-17.7c-5.7-2-11.3-4.4-11.3-9.5c0.1-4.2,3.2-7.2,8.1-7.2C535.6,342.7,540.2,348.1,541.9,355.9 M254,281.3
	c4.3,0,7.1,2.3,7.1,5.6c0,1.5-0.3,3.3-2.2,5c-2.2,2-5.9,3.7-13.9,5.3c0,0.4,0,0.6,0,1.1c0,3.2,1,6.1,4.2,6.1c3.4,0,5.9-2.7,8.2-6.1
	l1.4,1.2c-3.6,6.3-8.3,7.9-12.5,7.9c-3.3,0-7.6-1.5-8-7.7c-2.2,4.7-5.2,7.7-9.1,7.7c-3.2,0-4.4-2.1-3.3-6.1l3.9-13.4
	c0.6-1.9,0-3.2-1.3-3.2c-3.2,0-7.6,6.4-9.5,11.1c-1.2,3-2,5.8-3.4,10.9l-6.1,0.6l6-27c0.1-0.8,0.6-3.2,0.6-3.5
	c0.1-0.9,0-1.9-0.7-2.5c-0.4-0.4-1-0.5-1.6-0.6c-1.1-0.2-2.2-0.2-3.2-0.2c-0.1,0-0.2,0-0.3,0h-2.7l-6.4,28.4
	c-0.4,1.7-0.4,2.6,1.1,2.7l3.4,0.2l-0.4,1.8h-16.7l0.4-1.8l3.1-0.2c1.5-0.1,1.9-1,2.3-2.7l6.4-28.4h-3c-3.5,0-5.4,1.3-6.8,4
	l-1.6,3.1h-1.8l2.1-9.3c0.4,0,0.8,0,1.2,0c1.6,0,3.3,0,4.9,0c2.2,0,4.4,0,6.7,0c2.1,0,4.2,0,6.3,0c1.8,0,3.6,0.1,5.3-0.1
	c1.8-0.2,3.5-0.3,5.2-0.5c1.5-0.2,2.9-0.4,4.4-0.6l0.3,0.3l-5.2,21.5h0.3c2.9-5.5,7.7-10.9,12.9-10.9c4.1,0,5.1,3.3,3.8,7.7
	l-3.8,12.3c-0.4,1.5-0.4,2.5,0.6,2.5c1.3,0,3.3-3,4.4-5.1c1.1-2.1,1.9-5,1.9-5v0c0.7-2.4,1.8-4.7,3.4-6.7
	C245.3,283.7,249.1,281.3,254,281.3 M255.3,286c0-1.6-0.9-2.5-2.3-2.5c-3.4,0-7,5.8-7.8,11.7C252.1,293.8,255.3,289.8,255.3,286z
	 M610.4,359.5c-5.7-2-11.3-4.4-11.3-9.5c0.1-4.2,3.2-7.2,8.1-7.2c6,0,10.6,5.4,12.3,13.1h3.7v-14c-4.2-2.6-10.2-3.7-15.6-3.7
	c-12.8,0-21,6-21,16.8c0,8.6,7.3,13.4,16.6,16.5c5,1.8,10.8,4.8,10.8,10.7c0,4.7-3.3,7.5-8.4,7.5c-6.5,0-14-5-15.7-11.8H587
	c-2.6,8.3-13.3,13.6-16.2,3.7c-0.5-1.6-0.6-3.3-0.6-5v-32.2h12.3v-5h-12.3v-13.8H565l-8.6,13.8H549v5h6.9v36.3
	c0,10.4,7.8,13.6,13,13.6c0.5,0,0.9,0,1.4-0.1c6-0.3,13.3-3.1,16.8-6.9c3.7,4,11.8,7,18,7c13.4,0,21.7-6.6,21.7-17.2
	C626.8,367.7,620.9,363.2,610.4,359.5"/>
<path class="st0" d="M153.3,268.8l6.8-11.8c-11.7-6.8-25.3-10.7-39.9-10.7v13.7C132.3,259.9,143.5,263.1,153.3,268.8"/>
<path class="st1" d="M146.4,280.6l6.8-11.8c-9.7-5.6-21-8.8-33-8.8v13.7C129.8,273.6,138.7,276.1,146.4,280.6"/>
<path class="st2" d="M153.3,268.8l-6.8,11.8c8,4.6,14.6,11.2,19.2,19.2l11.9-6.8C171.6,282.9,163.3,274.5,153.3,268.8"/>
<path class="st3" d="M120.2,287.3c7.1,0,13.7,1.9,19.4,5.2l6.8-11.9c-7.7-4.5-16.7-7-26.2-7V287.3"/>
<path class="st4" d="M153.7,306.6l11.8-6.8c-4.6-8-11.2-14.6-19.2-19.2l-6.8,11.9C145.4,295.9,150.3,300.8,153.7,306.6"/>
<path class="st5" d="M158.9,326h13.7c0-9.6-2.6-18.5-7-26.2l-11.8,6.8C157,312.3,158.9,318.9,158.9,326"/>
<path class="st6" d="M132.7,304.3l6.8-11.9c-5.7-3.3-12.3-5.2-19.3-5.2V301C124.8,301,129.1,302.2,132.7,304.3"/>
<path class="st7" d="M141.9,313.5l11.9-6.9c-3.4-5.9-8.3-10.8-14.2-14.2l-6.8,11.9C136.5,306.5,139.7,309.7,141.9,313.5"/>
<path class="st8" d="M141.9,338.5l11.9,6.9c3.3-5.7,5.2-12.3,5.2-19.3h-13.7C145.2,330.5,144,334.8,141.9,338.5"/>
<path class="st9" d="M145.2,326h13.7c0-7-1.9-13.7-5.2-19.4l-11.9,6.9C144,317.2,145.2,321.4,145.2,326"/>
<path class="st10" d="M125.9,335.8l6.8,11.9c3.8-2.2,7-5.4,9.2-9.2l-11.9-6.8C129,333.4,127.6,334.8,125.9,335.8"/>
<path class="st11" d="M125.9,316.2l6.8-11.9c-3.7-2.1-7.9-3.4-12.5-3.4v13.7C122.3,314.7,124.2,315.2,125.9,316.2"/>
<path class="st12" d="M131.5,326h13.7c0-4.5-1.2-8.8-3.3-12.5l-11.9,6.8C131,322,131.5,323.9,131.5,326"/>
<path class="st13" d="M130,320.3l11.9-6.8c-2.2-3.8-5.4-7-9.2-9.2l-6.8,11.9C127.6,317.2,129,318.6,130,320.3"/>
<path class="st14" d="M130,331.6l11.9,6.8c2.1-3.7,3.4-7.9,3.4-12.5h-13.7C131.5,328,131,330,130,331.6"/>
<line class="st15" x1="120.2" y1="326" x2="120.2" y2="326"/>
<line class="st15" x1="120.2" y1="326" x2="120.2" y2="326"/>
<path class="st16" d="M94,280.6c7.7-4.5,16.7-7,26.2-7v-13.7c-12,0-23.3,3.2-33,8.8c-10,5.8-18.4,14.2-24.2,24.2
	c-5.6,9.7-8.8,21-8.8,33s3.2,23.3,8.8,33l23.7-13.7l11.9-6.8l21.7-12.5H67.8c0-9.6,2.6-18.5,7-26.2C79.4,291.8,86.1,285.2,94,280.6"
	/>
<path class="st17" d="M87.2,268.8c9.7-5.6,21-8.8,33-8.8v-13.7c-14.5,0-28.1,3.9-39.9,10.7c-12.1,7-22.2,17.1-29.2,29.2
	c-6.8,11.7-10.7,25.4-10.7,39.9c0,14.5,3.9,28.1,10.7,39.9c7,12.1,17.1,22.2,29.2,29.2l6.8-11.9l6.8-11.8l6.8-11.9l13.7-23.7
	l5.7-9.8l-21.7,12.5l-11.9,6.8L63,359c-5.6-9.7-8.8-21-8.8-33s3.2-23.3,8.8-33C68.8,282.9,77.2,274.5,87.2,268.8"/>
<line class="st15" x1="120.2" y1="326" x2="120.2" y2="326"/>
<line class="st15" x1="120.2" y1="326" x2="120.2" y2="326"/>
<line class="st15" x1="120.2" y1="326" x2="120.2" y2="326"/>
<line class="st15" x1="120.2" y1="326" x2="120.2" y2="326"/>
<path class="st18" d="M73.5,245.1c-14.2,8.2-26,20-34.2,34.2C31.3,293,26.8,309,26.8,326c0,17,4.6,33,12.5,46.7
	c8.2,14.2,20,26,34.2,34.2c13.7,7.9,29.7,12.5,46.7,12.5V326l-5.7,9.8l-13.7,23.7L94,371.4l-6.8,11.8l-6.8,11.9
	c-12.1-7-22.2-17.1-29.2-29.2c-6.8-11.7-10.7-25.3-10.7-39.9s3.9-28.1,10.7-39.9c7-12.1,17.1-22.2,29.2-29.2
	c11.7-6.8,25.4-10.7,39.9-10.7v-13.7C103.2,232.5,87.2,237.1,73.5,245.1"/>
<path class="st19" d="M120.2,287.3c-7.1,0-13.7,1.9-19.4,5.2c-5.9,3.4-10.8,8.3-14.2,14.2l11.9,6.9l11.9,6.8l9.8,5.7l-5.7-9.8
	l-6.8-11.9c3.7-2.1,7.9-3.4,12.5-3.4V287.3"/>
<path class="st20" d="M125.9,316.2c-1.7-1-3.6-1.5-5.7-1.5V326L125.9,316.2"/>
<path class="st21" d="M107.7,304.3l6.8,11.9l5.7,9.8v-25C115.7,301,111.4,302.2,107.7,304.3"/>
<path class="st12" d="M120.2,326v11.3c2.1,0,4-0.6,5.7-1.5L120.2,326"/>
<path class="st6" d="M100.9,292.5c5.7-3.3,12.3-5.2,19.4-5.2v-13.7c-9.6,0-18.5,2.5-26.2,7c-7.9,4.6-14.6,11.2-19.2,19.2
	c-4.5,7.7-7,16.7-7,26.2h52.4l-9.8-5.7l-11.9-6.8l-11.9-6.9C90.1,300.8,95,295.9,100.9,292.5"/>
<path class="st22" d="M120.2,326l9.8-5.7c-1-1.7-2.4-3.2-4.1-4.1L120.2,326"/>
<path class="st23" d="M120.2,326l9.8,5.7c1-1.7,1.5-3.6,1.5-5.7H120.2"/>
<path class="st24" d="M125.9,335.8c1.7-1,3.1-2.4,4.1-4.1l-9.8-5.7L125.9,335.8"/>
<path class="st23" d="M131.5,326c0-2.1-0.6-4-1.5-5.7l-9.8,5.7H131.5"/>
</svg>
