<?xml version="1.0" encoding="UTF-8"?>
<svg width="418px" height="134px" viewBox="0 0 418 134" version="1.1" xmlns="http://www.w3.org/2000/svg" xmlns:xlink="http://www.w3.org/1999/xlink">
    <title>4-Sitewide/branding/logo</title>
    <g id="4-Sitewide/branding/logo" stroke="none" stroke-width="1" fill="none" fill-rule="evenodd">
        <g id="SEB_RGB_HOR_HEPT_BLUE">
            <line x1="121.049121" y1="71.3866593" x2="296.360879" y2="71.3866593" id="Stroke-1" stroke="#1C1B19" stroke-width="10.4358022"></line>
            <path d="M61.7268791,78.3399341 C47.9234066,75.2461538 36.9898901,69.1734505 36.9898901,54.9267473 C36.9898901,41.8963516 47.7025275,31.6254725 62.2790769,31.6254725 C77.077978,31.6254725 87.6801758,41.8963516 87.6801758,54.9267473 L87.6801758,56.5833407 C87.6801758,57.7981758 86.6847473,58.7921319 85.4713846,58.7921319 L74.316989,58.7921319 C73.1006813,58.7921319 72.1081978,57.7981758 72.1081978,56.5833407 L72.1081978,54.9267473 C72.1081978,50.5091648 68.5741319,46.6437802 62.2790769,46.6437802 C56.0959341,46.6437802 52.6723077,49.956967 52.6723077,54.3745495 C52.6723077,58.5712527 56.7570989,61.2218022 62.499956,62.3261978 C77.8510549,65.4185055 89.2263297,71.824 89.2263297,87.1736264 C89.2263297,101.530769 77.960022,111.358418 62.2790769,111.358418 C47.0384176,111.358418 35.9959341,100.647253 35.9959341,87.1736264 L35.9959341,83.8619121 C35.9959341,82.6470769 36.9898901,81.6531209 38.2047253,81.6531209 L49.3591209,81.6531209 C50.573956,81.6531209 51.5679121,82.6470769 51.5679121,83.8619121 L51.5679121,87.1736264 C51.5679121,92.2538462 55.4332967,96.2296703 62.2790769,96.2296703 C68.9054505,96.2296703 73.2125934,92.3642857 73.2125934,87.1736264 C73.2125934,82.4247253 70.0098462,80.2159341 61.7268791,78.3399341" id="Fill-2" fill="#1C1B19"></path>
            <path d="M0,133.998527 L125.222264,133.998527 L125.222264,8.77479121 L0,8.77479121 L0,133.998527 Z M10.4343297,123.564198 L114.786462,123.564198 L114.786462,19.2105934 L10.4343297,19.2105934 L10.4343297,123.564198 Z" id="Fill-4" fill="#1C1B19"></path>
            <path d="M292.186264,133.998527 L417.41,133.998527 L417.41,8.77479121 L292.186264,8.77479121 L292.186264,133.998527 Z M302.620593,123.564198 L406.974198,123.564198 L406.974198,19.2105934 L302.620593,19.2105934 L302.620593,123.564198 Z" id="Fill-5" fill="#1C1B19"></path>
            <path d="M347.453165,78.0071429 C346.790527,78.0071429 346.348769,78.4503736 346.348769,79.1115385 L346.348769,93.5791209 C346.348769,94.2417582 346.790527,94.6835165 347.453165,94.6835165 L358.938879,94.6835165 C363.686308,94.6835165 366.668176,90.7076923 366.668176,86.2901099 C366.668176,81.982967 363.575868,78.0071429 358.938879,78.0071429 L347.453165,78.0071429 Z M358.938879,62.5470769 C362.802791,62.5470769 366.226418,59.2338901 366.226418,55.3685055 C366.226418,51.5031209 362.802791,48.3003736 358.938879,48.3003736 L347.453165,48.3003736 C346.790527,48.3003736 346.348769,48.7421319 346.348769,49.4047692 L346.348769,61.4426813 C346.348769,62.1053187 346.790527,62.5470769 347.453165,62.5470769 L358.938879,62.5470769 Z M381.246198,55.3685055 C381.246198,60.2278462 378.816527,66.0796703 375.61378,69.2824176 C374.951143,69.9450549 374.951143,70.7196044 375.61378,71.2718022 C379.258286,74.3626374 382.129714,80.6576923 382.129714,86.2901099 C382.129714,100.757692 373.07367,110.143582 359.491077,110.143582 L333.427341,110.143582 C332.212505,110.143582 331.218549,109.149626 331.218549,107.934791 L331.218549,35.0476264 C331.218549,33.8342637 332.212505,32.8388352 333.427341,32.8388352 L359.491077,32.8388352 C371.858835,32.8388352 381.246198,42.8888352 381.246198,55.3685055 L381.246198,55.3685055 Z" id="Fill-7" fill="#1C1B19"></path>
            <polyline id="Fill-8" fill="#00E1FF" points="180.729187 128.75633 145.847956 85.011956 158.296703 30.4651209 208.705736 6.19197802 259.111824 30.4651209 271.562044 85.011956 236.677868 128.75633 180.729187 128.75633"></polyline>
            <path d="M208.704264,0.400527473 L153.770154,26.855956 L140.202286,86.3004176 L178.217055,133.972022 L239.19,133.972022 L277.207714,86.3004176 L263.639846,26.855956 L208.704264,0.400527473 Z M208.704264,11.981956 L254.583802,34.0772308 L265.914901,83.7234945 L234.165736,123.53622 L183.242791,123.53622 L151.493626,83.7234945 L162.824725,34.0772308 L208.704264,11.981956 L208.704264,11.981956 Z" id="Fill-10" fill="#1C1B19"></path>
            <path d="M201.967451,93.5791209 C201.967451,94.2417582 202.409209,94.6835165 203.071846,94.6835165 L229.244549,94.6835165 C230.459385,94.6835165 231.453341,95.6774725 231.453341,96.8923077 L231.453341,107.934791 C231.453341,109.149626 230.459385,110.143582 229.244549,110.143582 L188.714703,110.143582 C187.499868,110.143582 186.505912,109.149626 186.505912,107.934791 L186.505912,35.0476264 C186.505912,33.8342637 187.499868,32.8388352 188.714703,32.8388352 L228.802791,32.8388352 C230.017626,32.8388352 231.011582,33.8342637 231.011582,35.0476264 L231.011582,46.0915824 C231.011582,47.3064176 230.017626,48.3003736 228.802791,48.3003736 L203.071846,48.3003736 C202.409209,48.3003736 201.967451,48.7421319 201.967451,49.4047692 L201.967451,62.6575165 C201.967451,63.3186813 202.409209,63.7619121 203.071846,63.7619121 L227.919275,63.7619121 C229.13411,63.7619121 230.128066,64.7558681 230.128066,65.9692308 L230.128066,77.0131868 C230.128066,78.228022 229.13411,79.221978 227.919275,79.221978 L203.071846,79.221978 C202.409209,79.221978 201.967451,79.6637363 201.967451,80.3263736 L201.967451,93.5791209" id="Fill-12" fill="#1C1B19"></path>
        </g>
    </g>
</svg>